<?xml version="1.0" standalone="no"?>
<!DOCTYPE svg PUBLIC "-//W3C//DTD SVG 20010904//EN"
 "http://www.w3.org/TR/2001/REC-SVG-20010904/DTD/svg10.dtd">
<svg version="1.0" xmlns="http://www.w3.org/2000/svg"
 width="1024.000000pt" height="1280.000000pt" viewBox="0 0 1024.000000 1280.000000"
 preserveAspectRatio="xMidYMid meet">

<g transform="translate(0.000000,1280.000000) scale(0.100000,-0.100000)"
fill="#000000" stroke="none">
<path d="M0 6400 l0 -6400 5120 0 5120 0 0 6400 0 6400 -5120 0 -5120 0 0
-6400z m3755 2785 c28 -17 66 -37 85 -45 19 -7 36 -14 38 -16 5 -3 -55 -120
-95 -187 -32 -53 -38 -58 -62 -52 -49 12 -154 78 -209 130 -62 61 -63 56 1
185 64 131 58 128 131 68 33 -28 84 -66 111 -83z m1023 -127 c6 -7 35 -68 66
-134 102 -224 124 -356 86 -509 -44 -178 -109 -361 -138 -386 -20 -18 -23 -19
-12 -4 8 11 -10 -2 -40 -28 -108 -94 -256 -199 -336 -238 -133 -65 -209 -79
-416 -79 -169 0 -181 -1 -226 -24 -54 -28 -78 -52 -154 -157 -102 -139 -284
-267 -458 -321 -62 -19 -97 -23 -200 -23 -121 0 -128 1 -192 33 -80 39 -168
129 -217 222 -49 93 -67 117 -99 128 -65 23 -184 -50 -353 -218 -94 -93 -200
-220 -212 -253 -2 -7 -8 -9 -12 -4 -13 11 22 155 51 214 25 53 39 60 60 34 8
-10 13 -11 18 -2 4 6 11 9 16 6 5 -3 37 17 72 45 35 28 97 76 138 107 41 32
77 60 80 64 13 14 99 49 123 49 61 0 88 33 91 109 2 37 24 15 44 -41 26 -73
36 -122 24 -114 -17 10 -35 -13 -34 -44 1 -54 43 -122 121 -201 96 -96 141
-114 286 -114 111 0 202 23 310 77 175 89 330 237 289 278 -5 5 -28 10 -51 11
-36 3 -41 5 -31 18 7 9 18 21 26 28 10 9 11 16 3 32 -9 16 -7 21 12 27 52 16
50 60 -6 111 -23 21 -61 48 -84 59 -60 27 -69 70 -49 229 27 217 75 325 191
433 83 78 147 115 235 138 108 28 204 2 268 -71 75 -84 82 -132 49 -301 -14
-71 -30 -154 -36 -185 -5 -31 -16 -71 -25 -90 l-14 -34 -2 30 c-2 27 -3 26
-14 -15 -13 -46 -11 -88 3 -103 11 -11 150 9 236 34 98 30 195 80 297 156 153
113 199 180 206 303 3 50 -1 96 -12 138 -17 64 -76 196 -117 262 l-22 35 47
105 c95 212 91 206 114 178z m4252 -266 c-27 -108 -100 -247 -170 -324 -33
-37 -87 -107 -119 -155 -104 -158 -214 -284 -252 -289 -5 -1 -10 -3 -11 -4 -8
-8 -56 -4 -51 3 3 5 0 7 -8 5 -8 -3 -13 -10 -12 -16 2 -6 -3 -9 -11 -6 -8 3
-17 0 -22 -7 -5 -8 -3 -10 6 -4 9 5 11 4 6 -3 -4 -7 -13 -12 -21 -12 -7 0 -26
-13 -42 -30 -15 -16 -32 -30 -37 -30 -9 0 -116 -90 -177 -150 -20 -19 -69 -55
-109 -80 -39 -25 -95 -60 -123 -79 -187 -121 -402 -193 -530 -175 -128 17
-200 54 -329 172 -94 85 -133 108 -172 98 -41 -10 -83 -62 -112 -138 -42 -112
-67 -157 -138 -249 -119 -151 -257 -255 -496 -370 -168 -82 -479 -213 -486
-206 -15 14 85 66 243 128 225 88 323 136 443 214 168 111 329 300 392 461 17
43 21 107 6 98 -4 -3 -8 -1 -8 5 0 5 -8 8 -18 6 -17 -3 -15 7 15 83 60 156 68
174 76 176 11 1 37 -70 37 -101 0 -31 25 -52 73 -60 33 -5 56 -20 121 -83 130
-125 192 -171 258 -191 75 -24 203 -25 290 -3 103 25 299 131 386 208 26 23
92 74 147 114 55 39 116 86 135 103 l35 32 -35 -27 c-74 -56 -156 -106 -176
-106 -26 0 -44 15 -84 73 -18 26 -35 47 -36 47 -2 0 4 -22 17 -65 5 -18 -11
-53 -28 -59 -12 -5 -13 -4 -5 7 9 11 5 26 -17 68 -16 30 -44 97 -62 149 -31
90 -33 103 -33 240 -1 141 0 147 28 199 15 30 51 77 80 106 109 109 233 141
591 154 276 10 315 18 450 90 49 27 95 50 101 50 7 1 5 -22 -6 -67z m-2437
-118 c45 -36 112 -80 150 -98 l67 -33 -44 -89 c-25 -49 -58 -104 -73 -122
l-28 -33 -84 42 c-107 53 -196 135 -186 171 8 29 105 228 111 228 2 0 41 -29
87 -66z m303 -679 c27 -35 27 -37 15 -105 -15 -83 -31 -110 -55 -91 -9 7 -16
17 -16 22 0 5 -11 32 -25 61 -14 28 -25 58 -25 65 0 8 -4 11 -10 8 -12 -7 6
43 22 62 21 26 65 15 94 -22z m-4388 -117 c20 -20 14 -64 -19 -151 -34 -88
-68 -130 -97 -120 -27 10 -31 24 -25 73 4 31 17 58 42 88 45 55 49 61 61 95
10 30 20 33 38 15z m5302 -163 c9 5 11 4 6 -3 -6 -11 5 -16 26 -14 3 1 11 -5
17 -12 9 -11 4 -21 -26 -45 -21 -17 -41 -31 -46 -31 -5 0 -23 -10 -40 -23 -50
-37 -186 -94 -255 -107 -96 -19 -195 -9 -267 27 -74 38 -107 71 -102 104 2 13
10 24 18 24 8 0 19 3 24 7 6 4 37 -3 70 -14 83 -28 166 -33 252 -15 72 16 240
78 278 103 13 10 21 11 26 3 4 -7 12 -8 19 -4z m-703 -117 c-3 -8 -6 -5 -6 6
-1 11 2 17 5 13 3 -3 4 -12 1 -19z m-3787 -173 c-7 -8 -18 -15 -24 -15 -6 0
-2 7 8 15 25 19 32 19 16 0z m75 -21 c80 20 -49 -86 -190 -157 -137 -68 -297
-84 -398 -39 -51 23 -157 109 -157 128 0 8 -4 14 -10 14 -5 0 -10 4 -10 10 0
5 14 1 31 -9 25 -15 37 -17 60 -9 22 8 47 6 100 -7 104 -26 206 -17 339 30 58
20 124 37 147 37 27 1 40 5 36 12 -4 6 1 5 10 -3 10 -8 27 -11 42 -7z m1663
-281 c-1 -18 -11 -41 -21 -50 -16 -16 -21 -16 -45 -3 -34 19 -85 116 -76 144
15 48 24 47 85 -6 53 -45 59 -55 57 -85z m-416 -30 c10 -11 16 -29 13 -42 -5
-28 -32 -71 -44 -71 -17 0 -60 49 -84 97 -23 45 -24 51 -11 82 l14 33 47 -40
c27 -22 56 -48 65 -59z m346 -37 c41 -21 81 -20 149 4 78 27 87 26 78 -7 -4
-16 -11 -34 -17 -40 -14 -18 -102 -16 -168 2 -98 27 -118 29 -144 11 -14 -9
-30 -16 -36 -16 -17 0 -11 49 10 70 18 18 22 18 59 6 21 -8 53 -21 69 -30z
m-444 -51 c80 -52 110 -56 205 -26 65 20 80 12 42 -23 -37 -34 -86 -37 -190
-10 -52 13 -113 24 -133 24 -21 0 -38 5 -38 10 0 16 29 70 38 70 4 0 38 -21
76 -45z m203 19 c-6 -6 -47 9 -47 17 0 5 11 3 25 -3 14 -6 24 -13 22 -14z
m914 -1657 c64 -147 122 -274 129 -282 6 -7 25 -17 41 -20 17 -4 28 -12 26
-18 -6 -18 -267 -22 -267 -4 0 7 14 18 31 24 36 14 35 28 -4 111 l-22 47 -96
1 c-53 1 -100 -1 -105 -5 -16 -11 -54 -101 -54 -125 0 -19 7 -26 30 -31 17 -4
30 -13 30 -21 0 -12 -19 -14 -107 -12 -60 2 -108 7 -109 13 -2 6 11 17 29 25
37 17 51 43 189 358 86 197 95 212 117 210 21 -3 38 -33 142 -271z m1516 220
c52 -123 175 -402 200 -452 20 -42 34 -58 60 -67 18 -7 33 -18 33 -25 0 -10
-31 -13 -135 -13 -113 0 -135 2 -135 15 0 8 8 15 19 15 10 0 24 7 31 15 15 18
1 71 -31 124 l-18 30 -98 -2 -98 -2 -27 -54 c-37 -73 -36 -96 3 -107 60 -18
35 -29 -70 -32 -57 -1 -108 1 -113 6 -5 5 8 19 29 33 38 24 64 76 250 497 26
60 35 72 55 72 18 0 27 -11 45 -53z m-3717 28 c0 -9 -9 -15 -23 -15 -52 0 -62
-20 -65 -134 l-4 -106 132 0 132 0 -4 106 c-3 114 -13 134 -65 134 -14 0 -23
6 -23 15 0 13 23 15 145 15 122 0 145 -2 145 -15 0 -9 -9 -15 -25 -15 -14 0
-34 -9 -45 -20 -19 -19 -20 -33 -20 -250 0 -217 1 -231 20 -250 11 -11 31 -20
45 -20 16 0 25 -6 25 -15 0 -13 -23 -15 -145 -15 -122 0 -145 2 -145 15 0 9 9
15 23 15 52 0 61 19 65 139 l4 111 -132 0 -132 0 4 -111 c3 -96 6 -113 22
-125 11 -8 30 -14 43 -14 14 0 23 -6 23 -15 0 -13 -20 -15 -142 -13 -102 2
-143 6 -146 16 -2 8 7 12 27 12 57 0 61 18 61 272 0 215 -1 229 -20 248 -11
11 -31 20 -45 20 -24 0 -32 10 -18 23 3 4 69 7 145 7 116 0 138 -2 138 -15z
m700 0 c0 -8 -8 -15 -18 -15 -10 0 -28 -7 -40 -16 -23 -16 -23 -17 -20 -224 3
-193 5 -211 24 -237 50 -68 167 -69 238 -3 l41 39 3 204 c3 204 3 205 -20 221
-12 9 -30 16 -40 16 -10 0 -18 7 -18 15 0 13 20 15 120 15 100 0 120 -2 120
-15 0 -8 -9 -15 -20 -15 -12 0 -32 -11 -45 -25 -25 -24 -25 -26 -25 -202 0
-99 -5 -196 -11 -218 -14 -51 -73 -110 -124 -124 -51 -14 -179 -14 -230 0 -51
14 -110 73 -124 124 -6 23 -11 120 -11 223 0 169 -1 183 -20 202 -11 11 -31
20 -45 20 -24 0 -32 10 -18 23 3 4 69 7 145 7 116 0 138 -2 138 -15z m960 4
c0 -6 -85 -128 -190 -272 l-190 -262 120 -3 c150 -3 182 8 211 73 14 31 26 45
39 45 24 0 25 -18 7 -105 l-13 -60 -262 -3 c-221 -2 -262 0 -262 12 0 8 81
126 181 262 100 136 183 254 186 261 4 10 -16 13 -93 13 -119 0 -144 -10 -164
-68 -10 -28 -20 -42 -32 -42 -14 0 -18 8 -18 43 0 23 3 59 6 80 l7 37 233 0
c162 0 234 -3 234 -11z m1070 -4 c0 -9 -9 -15 -23 -15 -13 0 -32 -6 -43 -14
-18 -13 -19 -30 -22 -250 -3 -226 -2 -236 17 -255 12 -12 32 -21 46 -21 16 0
25 -6 25 -15 0 -13 -23 -15 -145 -15 -122 0 -145 2 -145 15 0 9 9 15 23 15 13
0 32 6 43 14 18 13 19 30 22 238 2 134 -1 235 -7 250 -7 20 -20 29 -46 34 -34
6 -42 14 -28 27 3 4 69 7 145 7 116 0 138 -2 138 -15z m534 -7 c3 -13 6 -44 6
-70 0 -45 -2 -48 -25 -48 -16 0 -25 6 -25 16 0 8 -13 29 -29 45 -28 28 -33 29
-120 29 l-91 0 0 -105 0 -105 63 0 c68 0 87 11 101 58 5 13 15 22 27 22 19 0
20 -6 17 -107 -3 -91 -6 -108 -20 -111 -11 -2 -18 6 -23 28 -10 44 -42 62
-107 58 l-53 -3 0 -113 c0 -101 2 -115 19 -128 11 -8 30 -14 43 -14 14 0 23
-6 23 -15 0 -13 -20 -15 -142 -13 -102 2 -143 6 -146 16 -2 7 6 12 24 12 15 0
36 7 46 17 16 15 18 36 18 254 0 234 0 238 -22 253 -12 9 -33 16 -45 16 -23 0
-30 10 -16 23 3 4 111 7 239 7 l232 0 6 -22z m1976 -207 l0 -39 -102 -6 c-57
-3 -220 -8 -363 -11 -143 -3 -351 -8 -462 -11 l-203 -7 0 42 c0 22 1 41 3 42
5 2 885 26 1005 27 l122 2 0 -39z m-5712 -88 l3 -43 -39 0 c-68 0 -800 -19
-954 -25 l-148 -5 0 45 0 45 83 1 c45 1 280 7 522 14 242 7 460 12 485 11 l45
-1 3 -42z"/>
<path d="M3695 8332 c-162 -56 -279 -195 -246 -295 13 -37 60 -87 106 -110 37
-19 170 -47 220 -47 46 0 105 40 175 117 67 75 81 103 82 162 1 146 -167 232
-337 173z"/>
<path d="M3436 7904 c22 -41 58 -80 119 -130 79 -65 80 -65 253 -63 86 1 202
-1 257 -5 95 -7 105 -6 193 23 97 31 182 74 267 135 67 48 49 46 -23 -3 -132
-89 -279 -145 -386 -145 -65 0 -70 2 -97 32 -36 40 -68 41 -170 7 -60 -21 -85
-24 -134 -19 -108 10 -204 71 -278 174 -18 25 -18 25 -1 -6z"/>
<path d="M8245 8439 c-91 -10 -225 -54 -274 -90 -127 -92 -134 -210 -21 -360
34 -43 65 -79 71 -79 14 0 131 83 204 144 169 142 387 379 359 390 -22 8 -254
5 -339 -5z"/>
<path d="M8450 8050 c-8 -5 -19 -6 -25 -4 -5 3 -1 -2 9 -10 23 -19 32 -20 42
-5 9 16 -9 30 -26 19z"/>
<path d="M5456 5379 c-21 -46 -40 -90 -43 -96 -4 -10 16 -13 81 -13 l85 0 -18
43 c-10 23 -29 66 -43 96 l-24 54 -38 -84z"/>
<path d="M7088 5425 c-9 -22 -28 -66 -42 -97 l-26 -58 85 0 c97 0 94 -13 33
120 l-34 74 -16 -39z"/>
</g>
</svg>
